<svg xmlns="http://www.w3.org/2000/svg" xmlns:xlink="http://www.w3.org/1999/xlink" viewBox="0 0 1280 1024"><defs><style>.cls-1{isolation:isolate;}.cls-2{fill:#bfd1ff;}.cls-21,.cls-3{fill:#80b377;}.cls-3{opacity:0.55;}.cls-12,.cls-15,.cls-19,.cls-4{opacity:0.2;mix-blend-mode:multiply;}.cls-4{fill:url(#linear-gradient);}.cls-5{fill:#ff5e00;}.cls-6{fill:#f9c546;}.cls-7{opacity:0.79;}.cls-8{fill:#96b4ff;}.cls-10,.cls-14,.cls-18,.cls-9{fill:none;stroke-miterlimit:10;}.cls-18,.cls-9{stroke:#fff;}.cls-9{stroke-width:0.76px;}.cls-10,.cls-14{stroke:#3465d9;}.cls-10{stroke-width:0.8px;}.cls-11{fill:#3465d9;}.cls-12{fill:url(#linear-gradient-2);}.cls-13{fill:#203e87;}.cls-14{stroke-width:1.05px;}.cls-15{fill:url(#linear-gradient-3);}.cls-16{fill:url(#linear-gradient-4);}.cls-17{fill:#ff9c91;}.cls-18{stroke-width:0.5px;}.cls-19{fill:url(#linear-gradient-5);}.cls-20{fill:#fff;}</style><linearGradient id="linear-gradient" x1="963.75" y1="397.26" x2="1175.22" y2="397.26" gradientUnits="userSpaceOnUse"><stop offset="0.13"/><stop offset="1" stop-color="#fff"/></linearGradient><linearGradient id="linear-gradient-2" x1="524.04" y1="400.23" x2="384.08" y2="512.01" xlink:href="#linear-gradient"/><linearGradient id="linear-gradient-3" x1="612.99" y1="861.71" x2="612.99" y2="616.98" xlink:href="#linear-gradient"/><linearGradient id="linear-gradient-4" x1="595.81" y1="362.95" x2="595.02" y2="323.71" gradientTransform="translate(96.63 -125.71) rotate(11.7)" gradientUnits="userSpaceOnUse"><stop offset="0.19" stop-color="#ff9c91"/><stop offset="1" stop-color="#f27c6f"/></linearGradient><linearGradient id="linear-gradient-5" x1="433.58" y1="522.55" x2="506.66" y2="653.67" gradientTransform="translate(322.17 -149.21) rotate(28.24)" xlink:href="#linear-gradient"/></defs><title>Artboard 1</title><g class="cls-1"><g id="Layer_1" data-name="Layer 1"><path class="cls-2" d="M343.24,94c145.21-144.84,418.9-88,536.89,28.91C1057.72,299,1113.05,446,1097,657.54c-19,249.34-164.88,363.22-450,358.61-281.47-4.55-397-109.92-432.33-260.24s82.44-303.59,76.55-382.64S259.44,177.59,343.24,94Z"/><path class="cls-3" d="M882.16,852.52c10.6-48.56-7.95-98.35-19.42-101.27-2.65-44.41-17.66-89.45-38.85-79.73s-23.84,79.73-23.84,79.73-42.64,16.57-7.55,111.64c-31.49,14.31-15.25,91.07,0,143.28Q853,995.73,901.14,974.24L906,970S913.06,876.36,882.16,852.52Z"/><path class="cls-4" d="M1091.25,371.71h-4.09V328A90.6,90.6,0,1,0,906,328v43.74h-4.09a8,8,0,0,0-8,8V534.34a22.83,22.83,0,0,0,22.83,22.82h159.65a22.83,22.83,0,0,0,22.83-22.82V379.67A8,8,0,0,0,1091.25,371.71ZM934.92,328a61.65,61.65,0,1,1,123.29,0v43.74H934.92Z"/><path class="cls-5" d="M1074.34,397.26H893.15V319.38a90.6,90.6,0,0,1,181.19,0ZM922.1,368.32h123.29V319.38a61.65,61.65,0,0,0-123.29,0Z"/><path class="cls-6" d="M882.46,363.12H1085a1.36,1.36,0,0,1,1.36,1.36V544.67a3.91,3.91,0,0,1-3.91,3.91H885a3.91,3.91,0,0,1-3.91-3.91V364.49A1.36,1.36,0,0,1,882.46,363.12Z"/><path class="cls-7" d="M1004.92,432.76a21.18,21.18,0,1,0-35,16,5.14,5.14,0,0,1,1.67,5.2l-7.52,28.76a4.57,4.57,0,0,0,4.42,5.73H999.2a4.41,4.41,0,0,0,4.27-5.53l-7.57-29a5.09,5.09,0,0,1,1.62-5.16A21.06,21.06,0,0,0,1004.92,432.76Z"/><path d="M996.56,432.76A17.1,17.1,0,1,0,970,448.81a5.07,5.07,0,0,1,1.62,5.15l-7.57,29a4.41,4.41,0,0,0,4.27,5.53h24a3.26,3.26,0,0,0,3.16-4.09l-7.92-30.3a5.27,5.27,0,0,1,1.68-5.33A21.07,21.07,0,0,0,996.56,432.76Z"/><path class="cls-8" d="M658.87,151.76V15.66C546.68-5.06,424.73,12.71,343.24,94c-83.8,83.6-57.9,200.23-52,279.28,4.12,55.29-52.21,146.9-74.38,248.4C602.09,593.69,658.87,294.82,658.87,151.76Z"/><line class="cls-9" x1="833.47" y1="251.33" x2="833.47" y2="265.87"/><line class="cls-9" x1="833.47" y1="279.98" x2="833.47" y2="294.52"/><line class="cls-9" x1="855.06" y1="272.92" x2="840.52" y2="272.92"/><line class="cls-9" x1="826.41" y1="272.92" x2="811.88" y2="272.92"/><line class="cls-9" x1="382.98" y1="777.08" x2="382.98" y2="791.62"/><line class="cls-9" x1="382.98" y1="805.73" x2="382.98" y2="820.27"/><line class="cls-9" x1="404.57" y1="798.67" x2="390.04" y2="798.67"/><line class="cls-9" x1="375.93" y1="798.67" x2="361.39" y2="798.67"/><line class="cls-9" x1="741.46" y1="103.56" x2="741.46" y2="118.1"/><line class="cls-9" x1="741.46" y1="132.21" x2="741.46" y2="146.75"/><line class="cls-9" x1="763.05" y1="125.15" x2="748.51" y2="125.15"/><line class="cls-9" x1="734.4" y1="125.15" x2="719.87" y2="125.15"/><line class="cls-10" x1="368.66" y1="341.53" x2="368.66" y2="356.07"/><line class="cls-10" x1="368.66" y1="370.18" x2="368.66" y2="384.72"/><line class="cls-10" x1="390.25" y1="363.12" x2="375.71" y2="363.12"/><line class="cls-10" x1="361.61" y1="363.12" x2="347.07" y2="363.12"/><path class="cls-11" d="M489.75,357.84C439.59,379.61,383,619.65,383,619.65l69.51-33,54.17-147.28Z"/><path class="cls-12" d="M482.86,504.12l23.8-64.71-16.91-81.57C475.63,364,461,387.4,447.26,417.9Z"/><path class="cls-13" d="M760.67,1010.73,730.72,756.42l-32.3-144.24H527.55L495.26,756.42,467.15,995.05c34,8.47,72,14.51,114.3,17.93L613,821l32,195.1,2,0A837.38,837.38,0,0,0,760.67,1010.73Z"/><line class="cls-14" x1="484.72" y1="999.12" x2="510.03" y2="761.23"/><line class="cls-14" x1="741.46" y1="1012.65" x2="714.71" y2="761.23"/><path class="cls-15" d="M730.72,756.42l-32.3-144.24H527.55L495.26,756.42l-7.55,64.12C565.56,809.73,613,744,613,744s47.42,65.74,125.28,76.55Z"/><path class="cls-13" d="M726.2,630.51l10-272.67S666,342.3,613,342.3s-123.24,15.54-123.24,15.54l10,272.67L474,784.4c86-4.32,139-77.89,139-77.89s53,73.57,139,77.89Z"/><path class="cls-13" d="M726.2,630.51l10-272.67S666,342.3,613,342.3s-123.24,15.54-123.24,15.54l10,272.67L474,784.4c86-4.32,139-77.89,139-77.89s53,73.57,139,77.89Z"/><path class="cls-11" d="M731.62,357.84c33.64,14.6,66.67,113.47,84.79,177,6.74,23.65-15.11,45.47-38.74,38.68h0A31.3,31.3,0,0,1,757,554.27L714.71,439.41Z"/><path d="M562.83,262l-6.49-23.83s-15.91-10.21-19.72-20.43c-10.16-27.23,31.43-62,74.4-54.59,41.71,7.2,43.47,26.19,43.47,26.19s21.34,4.45,20.08,26.54S658.05,265,658.05,265Z"/><polygon class="cls-16" points="640.56 350.25 584.35 351.69 583.42 291.43 639.64 290.56 640.56 350.25"/><path class="cls-17" d="M666.06,249a14.87,14.87,0,0,0-11.82,4.12c.17-4.59.19-9.4-.06-14.58,0,0-46.29-.85-57.71-30.9-7.92,22.52-28.4,32.23-28.4,32.23-.09,5.47.09,10.53.44,15.34-2.7-2.53-7.06-5.37-12.77-4.51-9.82,1.48,1.09,39.31,17,29.1h0c7.07,22.81,21.58,38.89,39.57,38.62s31.85-16.72,38.25-39.51C666.44,287.09,675.77,250.11,666.06,249Z"/><path class="cls-11" d="M783.88,499.27l32.24-27.59s23.46,79.55,5,97.45c-16.12,15.65-41.92,8.26-52.25.28C760,562.53,783.88,499.27,783.88,499.27Z"/><path class="cls-11" d="M613,530.07l36-185.52a289.12,289.12,0,0,0-72,0Z"/><polyline class="cls-18" points="569.78 352.76 535.83 380.92 567.46 427.99 538.53 457.69 612.99 566.29 687.45 457.69 658.51 427.99 690.15 380.92 656.2 352.76"/><line class="cls-18" x1="612.99" y1="566.3" x2="612.99" y2="686.97"/><path class="cls-6" d="M675.09,345.58A108.4,108.4,0,0,0,621.9,469.82L287,649.67l22.85,42.54L644.74,512.36a108.4,108.4,0,1,0,30.35-166.78Zm67.69,126.05a34.65,34.65,0,1,1,14.14-46.92A34.64,34.64,0,0,1,742.78,471.63Z"/><rect class="cls-6" x="318.16" y="685.33" width="19.03" height="40.05" transform="translate(-294.7 238.94) rotate(-28.23)"/><rect class="cls-6" x="352.38" y="666.95" width="19.03" height="40.05" transform="translate(-281.95 252.96) rotate(-28.24)"/><rect class="cls-6" x="386.61" y="648.57" width="19.03" height="40.05" transform="translate(-269.18 266.97) rotate(-28.24)"/><rect class="cls-19" x="267.63" y="558.92" width="380.16" height="13.87" transform="translate(-213.24 283.88) rotate(-28.24)"/><path class="cls-17" d="M820.3,436.18s15.24,47.09,14.55,54.73c-.5,5.51-19.66,25.66-30.32,36.49a6.32,6.32,0,0,1-10.43-2.27L786,503.33a33.11,33.11,0,0,1,5.62-32.82Z"/><path class="cls-17" d="M403.26,622.22l54.4-30.3a4,4,0,0,1,5.86,4.14l-4.91,29a10.93,10.93,0,0,1-5.63,7.83l-41.56,22.28a8.13,8.13,0,0,1-11.7-5.09l-3.2-12A14,14,0,0,1,403.26,622.22Z"/><circle class="cls-20" cx="632.12" cy="592.47" r="8.41"/><circle class="cls-20" cx="632.12" cy="640.77" r="8.41"/><path class="cls-21" d="M971.86,675.14c-2.93-49.12-19.53-98.92-43-88.17s-26.36,88.17-26.36,88.17-47.16,18.33-8.35,123.46c-38.62,17.56-12.32,120.08,5.49,176.28,49.6-21.77,89.8-52.22,120.7-91.78-.7-32.66-5.62-79.45-27-96C1005.06,733.43,984.56,678.37,971.86,675.14Z"/></g></g></svg>