<svg xmlns="http://www.w3.org/2000/svg" xmlns:xlink="http://www.w3.org/1999/xlink" viewBox="0 0 1280 1024"><defs><style>.cls-1{isolation:isolate;}.cls-2{fill:#80b377;}.cls-3{fill:#bfd1ff;}.cls-4{fill:#96b4ff;}.cls-15,.cls-19,.cls-23,.cls-24,.cls-5,.cls-7{fill:none;stroke-miterlimit:10;}.cls-5{stroke:#2e5e26;stroke-width:1.02px;}.cls-6{fill:#203e87;}.cls-24,.cls-7{stroke:#3465d9;}.cls-7{stroke-width:1.07px;}.cls-12,.cls-13,.cls-16,.cls-17,.cls-20,.cls-25,.cls-8{opacity:0.2;mix-blend-mode:multiply;}.cls-8{fill:url(#linear-gradient);}.cls-9{fill:url(#linear-gradient-2);}.cls-10{fill:#ff9c91;}.cls-11{fill:#3465d9;}.cls-12{fill:url(#linear-gradient-3);}.cls-13{fill:url(#linear-gradient-4);}.cls-14{fill:#fff;}.cls-15,.cls-19,.cls-23{stroke:#fff;}.cls-15{stroke-width:0.51px;}.cls-16{fill:url(#linear-gradient-5);}.cls-17{fill:url(#linear-gradient-6);}.cls-18{fill:#ff5e00;}.cls-19{stroke-width:0.43px;}.cls-20{fill:url(#linear-gradient-7);}.cls-21{fill:url(#radial-gradient);}.cls-22{opacity:0.79;}.cls-23,.cls-24{stroke-width:0.8px;}.cls-25{fill:url(#linear-gradient-8);}.cls-26{fill:url(#linear-gradient-9);}</style><linearGradient id="linear-gradient" x1="859.34" y1="567.16" x2="859.34" y2="758.89" gradientUnits="userSpaceOnUse"><stop offset="0.13"/><stop offset="1" stop-color="#fff"/></linearGradient><linearGradient id="linear-gradient-2" x1="823.92" y1="255.6" x2="823.16" y2="217.56" gradientUnits="userSpaceOnUse"><stop offset="0.19" stop-color="#ff9c91"/><stop offset="1" stop-color="#f27c6f"/></linearGradient><linearGradient id="linear-gradient-3" x1="760.06" y1="318.03" x2="649.99" y2="417.95" xlink:href="#linear-gradient"/><linearGradient id="linear-gradient-4" x1="484.28" y1="344.23" x2="484.28" y2="400.45" xlink:href="#linear-gradient"/><linearGradient id="linear-gradient-5" x1="740.09" y1="489.35" x2="971.27" y2="489.35" xlink:href="#linear-gradient"/><linearGradient id="linear-gradient-6" x1="422.6" y1="337.29" x2="723.14" y2="337.29" xlink:href="#linear-gradient"/><linearGradient id="linear-gradient-7" x1="451.01" y1="327.72" x2="451.01" y2="179.8" xlink:href="#linear-gradient"/><radialGradient id="radial-gradient" cx="451.01" cy="420.56" r="139.02" gradientUnits="userSpaceOnUse"><stop offset="0" stop-color="#ffd363"/><stop offset="0.36" stop-color="#ffcb48"/><stop offset="1" stop-color="#ffbb10"/></radialGradient><linearGradient id="linear-gradient-8" x1="476.83" y1="697.83" x2="666.44" y2="697.83" gradientUnits="userSpaceOnUse"><stop offset="0.13"/><stop offset="0.66" stop-color="#9d9d9d"/></linearGradient><linearGradient id="linear-gradient-9" x1="518.88" y1="598.28" x2="518.88" y2="663.44" gradientUnits="userSpaceOnUse"><stop offset="0" stop-color="#fff"/><stop offset="1" stop-color="#bfd1ff"/></linearGradient></defs><title>Artboard 1</title><g class="cls-1"><g id="Layer_1" data-name="Layer 1"><path class="cls-2" d="M600.06,926.33s11.84-66.89-56.63-109.78c2,18-13.7,45.87-.51,69.71C560,917.09,589.23,912.64,600.06,926.33Z"/><path class="cls-3" d="M523.43,13.42c185.06-1,293.91,106.42,428.29,381.54,74.57,152.64,204,253.28,179.22,425.32-19,131.92-119.5,222.52-399.49,183.4s-521.18-3.15-555.92-195.35c-35.83-198.14,81.15-322.59,75.07-489S338.33,14.39,523.43,13.42Z"/><path class="cls-4" d="M951.72,395C817.34,119.84,708.49,12.45,523.43,13.42c-122.56.64-205.06,61.66-245.08,151.09C370.67,337.91,597,617.66,1104.13,649,1065.6,564.64,998.07,489.84,951.72,395Z"/><path class="cls-2" d="M253.36,519.42S221.69,596,239.58,666.89c19.89,78.78,113.14,86.73,136.88,122.58,28-59.54,29.68-133.25-14.5-178.39C330,578.45,263.32,557.29,253.36,519.42Z"/><path class="cls-5" d="M260.15,558.52c8.47,81,123.51,133.81,116.31,231-5.85,78.87,22.7,135.71,62.27,185.53"/><path class="cls-2" d="M249.28,797.45c-3.47,37.12,2.46,79.3,44.54,92.63,27.34,8.66,97.37,2.28,97.37,2.28s-19.07-.51-25.64-20.23S351,830.26,329.41,819.07,264.11,818.7,249.28,797.45Z"/><path class="cls-2" d="M479.82,772.8c22.69,29.58,40.13,68.45,11.6,102.13-18.54,21.88-81.22,53.75-81.22,53.75s15.87-10.58,10.93-30.77-10-43.18,2.37-64.16S478.58,798.68,479.82,772.8Z"/><path class="cls-2" d="M707.3,635s-21.27,38.75-70,64.52-52.4,95.77-12.52,171.85c91.63,2,124.74-58.09,125.11-118.16C750.35,680.67,707.3,635,707.3,635Z"/><path class="cls-5" d="M707.3,635s13.25,50.29-26.38,125.82S606.53,863,597.56,989.15"/><path class="cls-2" d="M606.5,963.91s22.23-64.19,102.93-68.3c-10.53,14.71-10.38,46.73-33.51,61.13C646,975.36,622.63,957.23,606.5,963.91Z"/><path class="cls-6" d="M976.48,634.26,860.66,559.94l-120.5,66.74L688.42,998.22c14.23,1.66,28.56,3.44,43,5.46q39.19,5.48,73.76,7.63l55.45-304.24,64.51,301.06c44.8-6.22,80.89-18.45,109.71-35.43Z"/><line class="cls-7" x1="749.91" y1="661.55" x2="703.36" y2="998.36"/><line class="cls-7" x1="955.6" y1="654.44" x2="1016.45" y2="982.41"/><path class="cls-8" d="M990.38,714.82l-13.9-80.56L860.66,559.94l-120.5,66.74L728.3,711.87c88.05,2.16,119.52-68.12,119.52-68.12C882.65,725.5,953.67,722.67,990.38,714.82Z"/><path d="M764.77,180.39l-10.66-21s-16.84-6.46-22.38-15.27c-14.76-23.48,17.38-64,58.95-65.39,40.37-1.34,45.68,16.06,45.68,16.06s20.8,0,23.89,20.91-5.92,49.14-5.92,49.14Z"/><polygon class="cls-9" points="857.19 260.04 802.23 260.04 789.71 203.93 842.07 192.25 857.19 260.04"/><path class="cls-10" d="M858.7,148.26a14.16,14.16,0,0,0-10.24,6.14c-.74-4.33-1.65-8.82-2.87-13.61,0,0-43.42,8.16-59.9-17.71-3.05,22.57-20.3,35.6-20.3,35.6,1,5.13,2.12,9.82,3.37,14.25-3-1.85-7.63-3.66-12.8-1.75-8.88,3.28,8.62,36.52,21.55,23.9h0c11,20,27.68,32.17,44.43,28.43s26.53-21.77,28.1-44.31C866.44,183.82,868,147.47,858.7,148.26Z"/><path class="cls-11" d="M741,267.52,639.11,418.17l-96.38-70-27.39,41.08,112.45,96.56a33.91,33.91,0,0,0,49.27-5.44l88.85-119Z"/><polygon class="cls-12" points="686.28 348.4 721.45 420.92 765.91 361.36 740.97 267.52 686.28 348.4"/><path class="cls-13" d="M552.41,372.17C551,371.69,515.34,344,515.34,344s-28-32-41.82-37.77l14.35,26.3-71.72,10,5.14,13.85A24.2,24.2,0,0,0,444,372.17h54.88l34.43,29.16Z"/><path class="cls-6" d="M746.33,264.67c15.45-4,46.48-10.92,81.27-11.21,5.22-.05,10.44-.14,15.65-.43,36.36-2,70-1.89,89.1-1.55a17.75,17.75,0,0,1,17.37,16.43L970.83,548l20.94,125.71s-112.39,32.76-142.06-69.19c0,0-31.81,84.63-122.35,70.74l14.85-124.91-6-272.25A13.55,13.55,0,0,1,746.33,264.67Z"/><path class="cls-14" d="M868.91,506.54a7.45,7.45,0,1,1-7.45-7.45A7.45,7.45,0,0,1,868.91,506.54Z"/><path class="cls-14" d="M871.68,558.07a7.45,7.45,0,1,1-7.45-7.45A7.46,7.46,0,0,1,871.68,558.07Z"/><polyline class="cls-15" points="850.36 592.27 845.06 455.94 888.26 337.57 863.76 320.11 899.32 282.1 862.29 254.33"/><path class="cls-16" d="M971.27,550.62l-.44-2.6-6.08-80.72L806.23,428.08l-66.14,25.73a40.85,40.85,0,0,0,22.49,16.34c15.12,4.19,44.41-1.72,44.41-1.72l11.79,3.51-1.9,6.2S917.94,546.26,971.27,550.62Z"/><path class="cls-14" d="M552.41,364.31c-1.43-.48-37.07-28.21-37.07-28.21s-28-32-41.82-37.77l14.35,26.29-71.72,10,5.14,13.86A24.2,24.2,0,0,0,444,364.31h54.88l34.43,29.16Z"/><polygon class="cls-11" points="800.72 254.93 845.06 455.94 858.07 251.58 800.72 254.93"/><polyline class="cls-15" points="845.06 455.94 779.23 341.24 798.14 320.11 762.58 286.15 798.62 257.31"/><path class="cls-10" d="M866,435.93c-1.5-.17-42.11-19.91-42.11-19.91s-34-25.55-48.73-28.29l19.48,22.75-68.08,24.68,7.89,12.49a24.22,24.22,0,0,0,25.48,10.75L813.57,447l39.72,21.4Z"/><path class="cls-11" d="M938.37,251.28c42.1,0,96.38,176,72,238.4S823.09,459,823.09,459l17.64-41.85L954.6,448.09S878.51,251.28,938.37,251.28Z"/><path class="cls-17" d="M603.8,301H598V238.8a128.76,128.76,0,0,0-257.52,0V301h-5.81a11.32,11.32,0,0,0-11.32,11.32V532.1a32.44,32.44,0,0,0,32.44,32.44H582.69a32.44,32.44,0,0,0,32.44-32.44V312.29A11.32,11.32,0,0,0,603.8,301ZM381.62,238.8a87.62,87.62,0,1,1,175.23,0V301H381.62Z"/><path class="cls-18" d="M579.77,337.29H322.25V226.6a128.76,128.76,0,0,1,257.52,0ZM363.39,296.15H538.63V226.6a87.62,87.62,0,0,0-175.24,0Z"/><path class="cls-19" d="M337.73,321.81V226.6a113.28,113.28,0,0,1,226.56,0v95.21Z"/><polygon class="cls-20" points="538.63 235.39 538.63 296.15 363.39 296.15 363.39 235.39 322.25 235.39 322.25 337.29 579.77 337.29 579.77 235.39 538.63 235.39"/><path class="cls-21" d="M307,288.77H595a1.89,1.89,0,0,1,1.89,1.89V546.93a5.42,5.42,0,0,1-5.42,5.42h-281a5.42,5.42,0,0,1-5.42-5.42V290.66A1.89,1.89,0,0,1,307,288.77Z"/><path class="cls-22" d="M481.11,387.74a30.1,30.1,0,1,0-49.74,22.76,7.32,7.32,0,0,1,2.37,7.39l-10.69,40.87a6.49,6.49,0,0,0,6.28,8.14H473a6.27,6.27,0,0,0,6.08-7.86l-10.77-41.16a7.24,7.24,0,0,1,2.32-7.33A30,30,0,0,0,481.11,387.74Z"/><path d="M469.23,387.74a30.11,30.11,0,0,0-24.16-29.51,30.07,30.07,0,0,0-13.64,52.32,7.21,7.21,0,0,1,2.31,7.32L423,459a6.28,6.28,0,0,0,6.08,7.86h34.17a4.64,4.64,0,0,0,4.49-5.81L456.44,418a7.53,7.53,0,0,1,2.39-7.57A29.93,29.93,0,0,0,469.23,387.74Z"/><line class="cls-23" x1="651.37" y1="113.41" x2="651.37" y2="129.2"/><line class="cls-23" x1="651.37" y1="144.53" x2="651.37" y2="160.33"/><line class="cls-23" x1="674.83" y1="136.87" x2="659.03" y2="136.87"/><line class="cls-23" x1="643.7" y1="136.87" x2="627.91" y2="136.87"/><line class="cls-23" x1="1066.86" y1="729.74" x2="1066.86" y2="745.53"/><line class="cls-23" x1="1066.86" y1="760.86" x2="1066.86" y2="776.66"/><line class="cls-23" x1="1090.32" y1="753.2" x2="1074.53" y2="753.2"/><line class="cls-23" x1="1059.2" y1="753.2" x2="1043.4" y2="753.2"/><line class="cls-23" x1="210.64" y1="729.74" x2="210.64" y2="745.53"/><line class="cls-23" x1="210.64" y1="760.86" x2="210.64" y2="776.66"/><line class="cls-23" x1="234.1" y1="753.2" x2="218.3" y2="753.2"/><line class="cls-23" x1="202.97" y1="753.2" x2="187.18" y2="753.2"/><line class="cls-24" x1="708.87" y1="201.54" x2="708.87" y2="217.33"/><line class="cls-24" x1="708.87" y1="232.66" x2="708.87" y2="248.46"/><line class="cls-24" x1="732.33" y1="225" x2="716.54" y2="225"/><line class="cls-24" x1="701.21" y1="225" x2="685.41" y2="225"/><path class="cls-25" d="M621.69,624.82H448.22a8.07,8.07,0,0,0-8.07,8.07V756A14.86,14.86,0,0,0,455,770.84H614.9A14.86,14.86,0,0,0,629.76,756V632.89A8.07,8.07,0,0,0,621.69,624.82Z"/><rect class="cls-26" x="424.08" y="608.4" width="189.61" height="116.62" rx="1.35"/><path class="cls-14" d="M501.91,645.76l-4.77-10.43a8.29,8.29,0,0,0-7.53-4.83H424.08v109a14.86,14.86,0,0,0,14.86,14.87H598.82a14.87,14.87,0,0,0,14.87-14.87V659.3a8,8,0,0,0-8-8H510.53A9.48,9.48,0,0,1,501.91,645.76Z"/></g></g></svg>